<svg xmlns="http://www.w3.org/2000/svg" xmlns:xlink="http://www.w3.org/1999/xlink" version="1.1" x="0px" y="0px" viewBox="0 0 100 125" enable-background="new 0 0 100 100" xml:space="preserve"><g><path d="M35.212,19.992c-7.743,2.224-13.835,8.314-16.06,16.059c-0.229,0.793,0.23,1.621,1.023,1.848   c0.793,0.229,1.62-0.23,1.848-1.022c1.936-6.749,7.266-12.079,14.014-14.013c0.793-0.228,1.251-1.055,1.023-1.848   S36.006,19.766,35.212,19.992z"/><path d="M86.396,78.49L67.645,59.742c-0.24-0.24-0.502-0.443-0.774-0.627c3.179-4.801,5.035-10.555,5.035-16.744   C71.905,25.598,58.31,12,41.532,12S11.16,25.598,11.16,42.371s13.595,30.371,30.372,30.371c6.688,0,12.865-2.165,17.882-5.826   c0.147,0.198,0.306,0.391,0.485,0.57l18.749,18.748c1.065,1.066,2.477,1.607,3.874,1.605c1.397,0.002,2.807-0.539,3.872-1.605   c1.066-1.066,1.606-2.475,1.605-3.873C88.001,80.965,87.462,79.555,86.396,78.49z M14.146,42.371   c0-15.1,12.285-27.384,27.386-27.384c15.1,0,27.385,12.284,27.385,27.384c0,15.099-12.285,27.383-27.385,27.383   C26.432,69.754,14.146,57.47,14.146,42.371z M84.283,84.121l-0.002,0.002c-0.49,0.489-1.117,0.727-1.759,0.729   c-0.643-0.002-1.271-0.239-1.762-0.729L62.012,65.375c-0.104-0.105-0.191-0.219-0.273-0.335c1.215-1.083,2.342-2.261,3.369-3.524   c0.149,0.096,0.293,0.206,0.425,0.338l18.751,18.748c0.488,0.489,0.728,1.118,0.729,1.76   C85.011,83.004,84.771,83.632,84.283,84.121z"/></g></svg>